<svg width="32" height="32" viewBox="0 0 32 32" fill="none" xmlns="http://www.w3.org/2000/svg">
<path d="M21.5868 2.6665H10.4134C5.56008 2.6665 2.66675 5.55984 2.66675 10.4132V21.5732C2.66675 26.4398 5.56008 29.3332 10.4134 29.3332H21.5734C26.4268 29.3332 29.3201 26.4398 29.3201 21.5865V10.4132C29.3334 5.55984 26.4401 2.6665 21.5868 2.6665ZM22.6667 22.9998H9.33342C8.78675 22.9998 8.33342 22.5465 8.33342 21.9998C8.33342 21.4532 8.78675 20.9998 9.33342 20.9998H22.6667C23.2134 20.9998 23.6667 21.4532 23.6667 21.9998C23.6667 22.5465 23.2134 22.9998 22.6667 22.9998ZM22.6667 16.9998H9.33342C8.78675 16.9998 8.33342 16.5465 8.33342 15.9998C8.33342 15.4532 8.78675 14.9998 9.33342 14.9998H22.6667C23.2134 14.9998 23.6667 15.4532 23.6667 15.9998C23.6667 16.5465 23.2134 16.9998 22.6667 16.9998ZM22.6667 10.9998H9.33342C8.78675 10.9998 8.33342 10.5465 8.33342 9.99984C8.33342 9.45317 8.78675 8.99984 9.33342 8.99984H22.6667C23.2134 8.99984 23.6667 9.45317 23.6667 9.99984C23.6667 10.5465 23.2134 10.9998 22.6667 10.9998Z" fill="white"/>
</svg>
