<svg width="177" height="33" viewBox="0 0 177 33" fill="none" xmlns="http://www.w3.org/2000/svg">
<g clip-path="url(#clip0_1_31)">
<path d="M155.315 32.352H148.951C148.091 32.352 147.267 32.0062 146.66 31.3907C146.052 30.7751 145.711 29.9402 145.711 29.0697V3.9303C145.711 3.05976 146.052 2.22489 146.66 1.60933C147.267 0.993765 148.091 0.647949 148.951 0.647949H162.412L152.361 13.2724C152.21 13.457 152.136 13.6946 152.156 13.9337C152.177 14.1728 152.289 14.3943 152.469 14.55L158.774 20.1808C158.91 20.3033 159.008 20.4642 159.054 20.643C159.1 20.8217 159.092 21.0103 159.032 21.1847L155.429 31.6919C155.36 31.9051 155.321 32.1275 155.315 32.352ZM173.761 0.647949H167.396C167.389 0.872623 167.35 1.09505 167.279 1.30807L163.676 11.8153C163.614 11.9897 163.606 12.1792 163.652 12.3585C163.699 12.5378 163.798 12.6985 163.937 12.8191L170.242 18.4499C170.422 18.6057 170.535 18.8272 170.555 19.0663C170.575 19.3054 170.502 19.543 170.35 19.7276L160.302 32.352H173.761C174.62 32.352 175.444 32.0062 176.051 31.3907C176.659 30.7751 177 29.9402 177 29.0697V3.9303C177 3.05976 176.659 2.22489 176.051 1.60933C175.444 0.993765 174.62 0.647949 173.761 0.647949Z" fill="#F2F1EC"/>
<path d="M161.611 12.8983L165.778 0.778829C165.825 0.648799 165.824 0.506092 165.776 0.376406C165.729 0.246719 165.637 0.138572 165.517 0.0714408C165.398 0.00430926 165.259 -0.0174022 165.125 0.010225C164.991 0.0378523 164.871 0.112998 164.787 0.222131L153.997 13.7622L161.097 20.0897L156.93 32.2091C156.884 32.3392 156.884 32.4819 156.932 32.6116C156.98 32.7412 157.072 32.8494 157.191 32.9165C157.31 32.9837 157.45 33.0053 157.584 32.9777C157.717 32.9501 157.837 32.875 157.921 32.7658L168.729 19.2136L161.611 12.8983Z" fill="#FFAB10"/>
<path d="M0 6.22119H5.84526V14.6081H7.64657L12.8914 6.22119H19.7784L12.8914 16.6919L20.3488 27.9474H13.1106L7.52048 19.4297H5.84526V27.9474H0V6.22119Z" fill="#F2F1EC"/>
<path d="M20.6011 14.0329C23.0444 12.913 25.6922 12.3244 28.3737 12.305C28.9214 12.2985 29.4664 12.3848 29.9859 12.5606V17.7168H29.8268C29.3669 17.6462 28.9019 17.6146 28.4368 17.6225C27.6461 17.6503 26.8656 17.8128 26.1281 18.1032V27.9624H20.6011V14.0329Z" fill="#F2F1EC"/>
<path d="M29.7637 23.6702C29.7637 20.5755 32.5967 18.8364 38.2629 18.4531V18.1003C38.2629 17.2444 37.7675 16.8175 36.7768 16.8196C34.9051 16.7962 33.0616 17.2826 31.4389 18.228H31.0906V13.4885C32.0399 13.0917 33.0312 12.8069 34.0448 12.6398C35.06 12.4376 36.0906 12.3256 37.125 12.3052C39.1485 12.3052 40.7597 12.7422 41.9586 13.6163C43.1574 14.4904 43.7579 15.8674 43.7599 17.7474V27.2568C41.4273 27.9985 38.9993 28.387 36.5546 28.4097C32.0253 28.4097 29.7617 26.8299 29.7637 23.6702ZM36.3054 23.8619C36.9664 23.8689 37.6252 23.7829 38.2629 23.6063V21.8146C36.2814 21.8997 35.2917 22.3368 35.2937 23.1257C35.2937 23.6185 35.63 23.8619 36.3054 23.8619Z" fill="#F2F1EC"/>
<path d="M47.3956 14.3857C48.9327 12.9782 50.8911 12.2735 53.2709 12.2715C54.2127 12.2966 55.1498 12.4148 56.0689 12.6244C56.9383 12.7663 57.7771 13.0585 58.5487 13.4883V18.7388H58.2005C56.7571 17.8937 55.1266 17.4312 53.46 17.3943C53.0962 17.3856 52.7344 17.4505 52.3957 17.5853C52.057 17.72 51.7483 17.9219 51.4876 18.1791C50.9673 18.7757 50.6802 19.5444 50.6802 20.3405C50.6802 21.1366 50.9673 21.9053 51.4876 22.5018C51.7483 22.759 52.057 22.9609 52.3957 23.0957C52.7344 23.2305 53.0962 23.2954 53.46 23.2867C55.115 23.2517 56.7387 22.8234 58.2005 22.0364H58.5487V27.2565C58.0423 27.6175 57.2308 27.9005 56.1139 28.1053C55.1766 28.2887 54.2254 28.3905 53.2709 28.4095C50.8471 28.4095 48.8777 27.6885 47.3626 26.2466C45.8475 24.8047 45.0789 22.804 45.0569 20.2447C45.0569 17.7684 45.8365 15.8154 47.3956 14.3857Z" fill="#F2F1EC"/>
<path d="M65.9822 3.8208V13.3941C66.9141 12.7151 68.026 12.3357 69.1735 12.305C73.1964 12.305 75.2079 14.5135 75.2079 18.9306V27.9593H69.6718V18.7085C69.6728 18.5316 69.6351 18.3566 69.5613 18.1962C69.4876 18.0358 69.3798 17.8939 69.2455 17.7807C68.9535 17.5202 68.5746 17.382 68.1858 17.3944C67.4256 17.4172 66.6758 17.5801 65.9731 17.875V27.9593H60.4431V3.8208H65.9822Z" fill="#F2F1EC"/>
<path d="M83.7609 28.2819C80.0522 28.2819 78.1989 26.558 78.2009 23.1104V16.8834H75.7061V12.7523H78.2009V9.16571L83.6949 7.69336V12.7523H86.3518V16.8834H83.6949V22.3894C83.6949 22.9248 83.938 23.1895 84.4244 23.1895C85.0969 23.1895 85.6883 23.1682 86.1927 23.1256H86.3518V27.9594C85.5061 28.183 84.6348 28.2915 83.7609 28.2819Z" fill="#F2F1EC"/>
<path d="M94.632 28.4096C92.2303 28.4096 90.3079 27.6673 88.8648 26.1828C87.4218 24.6983 86.6993 22.7504 86.6973 20.339C86.6973 17.9723 87.3718 16.0356 88.7207 14.5288C89.3404 13.8067 90.1083 13.2306 90.9707 12.8407C91.8331 12.4508 92.7692 12.2566 93.7134 12.2716C94.6621 12.2716 95.6838 12.6457 96.7786 13.3941V3.8208H102.339V27.2445C99.8303 27.969 97.2398 28.3606 94.632 28.4096ZM94.632 23.2868C95.3571 23.2742 96.0784 23.1772 96.7816 22.9978V17.9085C96.1088 17.5856 95.3763 17.4104 94.632 17.3944C94.3144 17.3923 94.0007 17.4652 93.7157 17.6073C93.4307 17.7493 93.1822 17.9566 92.9899 18.2127C92.5576 18.8364 92.3256 19.58 92.3256 20.3421C92.3256 21.1042 92.5576 21.8478 92.9899 22.4715C93.1825 22.7271 93.4311 22.9338 93.7161 23.0752C94.0011 23.2167 94.3147 23.2891 94.632 23.2868Z" fill="#F2F1EC"/>
<path d="M103.891 23.6702C103.891 20.5755 106.724 18.8364 112.39 18.4531V18.1003C112.39 17.2444 111.889 16.8175 110.889 16.8196C109.016 16.7965 107.172 17.2829 105.548 18.228H105.203V13.4885C106.152 13.0913 107.143 12.8065 108.157 12.6398C109.172 12.4376 110.203 12.3256 111.237 12.3052C113.258 12.3052 114.87 12.7422 116.071 13.6163C117.271 14.4904 117.872 15.8674 117.872 17.7474V27.2568C115.539 27.9985 113.111 28.387 110.667 28.4097C106.147 28.4097 103.889 26.8299 103.891 23.6702ZM110.429 23.8619C111.091 23.8691 111.751 23.7831 112.39 23.6063V21.8146C110.408 21.8997 109.418 22.3368 109.418 23.1257C109.418 23.6185 109.757 23.8619 110.429 23.8619Z" fill="#F2F1EC"/>
<path d="M120.415 27.9593V3.8208H125.945V17.9085H126.894L130.148 12.7522H136.233L131.4 19.9892L136.804 27.9593H130.274L126.671 22.07H125.945V27.9593H120.415Z" fill="#F2F1EC"/>
</g>
<defs>
<clipPath id="clip0_1_31">
<rect width="177" height="33" fill="white"/>
</clipPath>
</defs>
</svg>
