<svg width="24" height="24" viewBox="0 0 24 24" fill="none" xmlns="http://www.w3.org/2000/svg">
<g clip-path="url(#clip0_1_60)">
<path d="M22.6987 1.56205C21.6276 0.978891 20.433 2.10355 19.7327 2.77001C18.1262 4.35286 16.7668 6.18563 15.2425 7.85179C13.5536 9.68456 11.9882 11.5173 10.258 13.3085C9.26935 14.3082 8.19829 15.3912 7.53919 16.6408C6.05619 15.1829 4.77917 13.6 3.1314 12.3088C1.93676 11.3924 -0.0405607 10.726 0.000633533 12.9336C0.0830221 15.8078 2.59587 18.8902 4.44962 20.8479C5.23231 21.681 6.26216 22.5557 7.4568 22.5973C8.8986 22.6806 10.3816 20.9312 11.2467 19.9731C12.7709 18.307 14.0068 16.4325 15.4073 14.7247C17.2198 12.4754 19.0736 10.2677 20.8449 7.97675C21.9572 6.56051 25.4587 3.06152 22.6987 1.56205ZM1.81311 12.767C1.77192 12.767 1.73073 12.767 1.64834 12.8086C1.48356 12.767 1.35998 12.7253 1.1952 12.642C1.31878 12.5587 1.52475 12.6003 1.81311 12.767Z" fill="#FFAB10"/>
</g>
<defs>
<clipPath id="clip0_1_60">
<rect width="23.7352" height="24" fill="white"/>
</clipPath>
</defs>
</svg>
